M48
;GenerationSoftware,Autodesk,EAGLE,9.6.2*%
;CreationDate,2022-12-24T03:59:07Z*%
FMAT,2
ICI,OFF
METRIC,TZ,000.000
T5C0.508
T4C0.650
T3C1.000
T2C1.016
T1C2.540
%
G90
M71
T1
X55880Y30480
X30480Y55880
X30480Y30480
T2
X25400Y58293
X22860Y58547
X20320Y58293
X17780Y58547
X35560Y4318
X33020Y4572
X30480Y4318
X27940Y4572
T3
X8635Y32980
X8635Y30480
X8635Y27980
X5335Y32980
X5335Y30480
X5335Y27980
X5480Y37980
X5480Y22980
T4
X1270Y1270
T5
X45720Y5080
X31750Y17780
X12446Y10160
X45720Y17780
X43180Y8890
X30480Y11430
X31750Y11430
X36830Y8890
X37592Y30480
X25400Y24130
X27940Y17780
X21590Y27980
X51750Y25400
X11709Y20320
X35560Y12700
X34290Y41910
X25400Y39370
X22860Y15240
X38887Y25400
X20320Y15240
X30480Y17780
X18542Y15748
X16510Y10160
M30