G04 EAGLE Gerber RS-274X export*
G75*
%MOIN*%
%FSLAX36Y36*%
%LPD*%
%INBoard Outline*%
%IPPOS*%
%AMOC8*
5,1,8,0,0,1.08239X$1,22.5*%
G01*
%ADD10C,0.000000*%
%ADD11C,0.010000*%


D10*
X0Y2000000D02*
X0Y400000D01*
X400000Y0D01*
X2000000Y0D01*
X2400000Y400000D01*
X2400000Y2000000D01*
X2000000Y2400000D01*
X400000Y2400000D01*
X0Y2000000D01*
X1150000Y1200000D02*
X1150015Y1201227D01*
X1150060Y1202453D01*
X1150135Y1203678D01*
X1150241Y1204901D01*
X1150376Y1206121D01*
X1150541Y1207337D01*
X1150736Y1208548D01*
X1150961Y1209755D01*
X1151215Y1210955D01*
X1151498Y1212149D01*
X1151811Y1213336D01*
X1152153Y1214514D01*
X1152524Y1215684D01*
X1152923Y1216844D01*
X1153350Y1217995D01*
X1153806Y1219134D01*
X1154290Y1220262D01*
X1154801Y1221378D01*
X1155339Y1222481D01*
X1155904Y1223570D01*
X1156496Y1224645D01*
X1157114Y1225705D01*
X1157757Y1226750D01*
X1158427Y1227779D01*
X1159121Y1228790D01*
X1159840Y1229785D01*
X1160583Y1230762D01*
X1161349Y1231720D01*
X1162140Y1232659D01*
X1162952Y1233578D01*
X1163788Y1234477D01*
X1164645Y1235355D01*
X1165523Y1236212D01*
X1166422Y1237048D01*
X1167341Y1237860D01*
X1168280Y1238651D01*
X1169238Y1239417D01*
X1170215Y1240160D01*
X1171210Y1240879D01*
X1172221Y1241573D01*
X1173250Y1242243D01*
X1174295Y1242886D01*
X1175355Y1243504D01*
X1176430Y1244096D01*
X1177519Y1244661D01*
X1178622Y1245199D01*
X1179738Y1245710D01*
X1180866Y1246194D01*
X1182005Y1246650D01*
X1183156Y1247077D01*
X1184316Y1247476D01*
X1185486Y1247847D01*
X1186664Y1248189D01*
X1187851Y1248502D01*
X1189045Y1248785D01*
X1190245Y1249039D01*
X1191452Y1249264D01*
X1192663Y1249459D01*
X1193879Y1249624D01*
X1195099Y1249759D01*
X1196322Y1249865D01*
X1197547Y1249940D01*
X1198773Y1249985D01*
X1200000Y1250000D01*
X1201227Y1249985D01*
X1202453Y1249940D01*
X1203678Y1249865D01*
X1204901Y1249759D01*
X1206121Y1249624D01*
X1207337Y1249459D01*
X1208548Y1249264D01*
X1209755Y1249039D01*
X1210955Y1248785D01*
X1212149Y1248502D01*
X1213336Y1248189D01*
X1214514Y1247847D01*
X1215684Y1247476D01*
X1216844Y1247077D01*
X1217995Y1246650D01*
X1219134Y1246194D01*
X1220262Y1245710D01*
X1221378Y1245199D01*
X1222481Y1244661D01*
X1223570Y1244096D01*
X1224645Y1243504D01*
X1225705Y1242886D01*
X1226750Y1242243D01*
X1227779Y1241573D01*
X1228790Y1240879D01*
X1229785Y1240160D01*
X1230762Y1239417D01*
X1231720Y1238651D01*
X1232659Y1237860D01*
X1233578Y1237048D01*
X1234477Y1236212D01*
X1235355Y1235355D01*
X1236212Y1234477D01*
X1237048Y1233578D01*
X1237860Y1232659D01*
X1238651Y1231720D01*
X1239417Y1230762D01*
X1240160Y1229785D01*
X1240879Y1228790D01*
X1241573Y1227779D01*
X1242243Y1226750D01*
X1242886Y1225705D01*
X1243504Y1224645D01*
X1244096Y1223570D01*
X1244661Y1222481D01*
X1245199Y1221378D01*
X1245710Y1220262D01*
X1246194Y1219134D01*
X1246650Y1217995D01*
X1247077Y1216844D01*
X1247476Y1215684D01*
X1247847Y1214514D01*
X1248189Y1213336D01*
X1248502Y1212149D01*
X1248785Y1210955D01*
X1249039Y1209755D01*
X1249264Y1208548D01*
X1249459Y1207337D01*
X1249624Y1206121D01*
X1249759Y1204901D01*
X1249865Y1203678D01*
X1249940Y1202453D01*
X1249985Y1201227D01*
X1250000Y1200000D01*
X1249985Y1198773D01*
X1249940Y1197547D01*
X1249865Y1196322D01*
X1249759Y1195099D01*
X1249624Y1193879D01*
X1249459Y1192663D01*
X1249264Y1191452D01*
X1249039Y1190245D01*
X1248785Y1189045D01*
X1248502Y1187851D01*
X1248189Y1186664D01*
X1247847Y1185486D01*
X1247476Y1184316D01*
X1247077Y1183156D01*
X1246650Y1182005D01*
X1246194Y1180866D01*
X1245710Y1179738D01*
X1245199Y1178622D01*
X1244661Y1177519D01*
X1244096Y1176430D01*
X1243504Y1175355D01*
X1242886Y1174295D01*
X1242243Y1173250D01*
X1241573Y1172221D01*
X1240879Y1171210D01*
X1240160Y1170215D01*
X1239417Y1169238D01*
X1238651Y1168280D01*
X1237860Y1167341D01*
X1237048Y1166422D01*
X1236212Y1165523D01*
X1235355Y1164645D01*
X1234477Y1163788D01*
X1233578Y1162952D01*
X1232659Y1162140D01*
X1231720Y1161349D01*
X1230762Y1160583D01*
X1229785Y1159840D01*
X1228790Y1159121D01*
X1227779Y1158427D01*
X1226750Y1157757D01*
X1225705Y1157114D01*
X1224645Y1156496D01*
X1223570Y1155904D01*
X1222481Y1155339D01*
X1221378Y1154801D01*
X1220262Y1154290D01*
X1219134Y1153806D01*
X1217995Y1153350D01*
X1216844Y1152923D01*
X1215684Y1152524D01*
X1214514Y1152153D01*
X1213336Y1151811D01*
X1212149Y1151498D01*
X1210955Y1151215D01*
X1209755Y1150961D01*
X1208548Y1150736D01*
X1207337Y1150541D01*
X1206121Y1150376D01*
X1204901Y1150241D01*
X1203678Y1150135D01*
X1202453Y1150060D01*
X1201227Y1150015D01*
X1200000Y1150000D01*
X1198773Y1150015D01*
X1197547Y1150060D01*
X1196322Y1150135D01*
X1195099Y1150241D01*
X1193879Y1150376D01*
X1192663Y1150541D01*
X1191452Y1150736D01*
X1190245Y1150961D01*
X1189045Y1151215D01*
X1187851Y1151498D01*
X1186664Y1151811D01*
X1185486Y1152153D01*
X1184316Y1152524D01*
X1183156Y1152923D01*
X1182005Y1153350D01*
X1180866Y1153806D01*
X1179738Y1154290D01*
X1178622Y1154801D01*
X1177519Y1155339D01*
X1176430Y1155904D01*
X1175355Y1156496D01*
X1174295Y1157114D01*
X1173250Y1157757D01*
X1172221Y1158427D01*
X1171210Y1159121D01*
X1170215Y1159840D01*
X1169238Y1160583D01*
X1168280Y1161349D01*
X1167341Y1162140D01*
X1166422Y1162952D01*
X1165523Y1163788D01*
X1164645Y1164645D01*
X1163788Y1165523D01*
X1162952Y1166422D01*
X1162140Y1167341D01*
X1161349Y1168280D01*
X1160583Y1169238D01*
X1159840Y1170215D01*
X1159121Y1171210D01*
X1158427Y1172221D01*
X1157757Y1173250D01*
X1157114Y1174295D01*
X1156496Y1175355D01*
X1155904Y1176430D01*
X1155339Y1177519D01*
X1154801Y1178622D01*
X1154290Y1179738D01*
X1153806Y1180866D01*
X1153350Y1182005D01*
X1152923Y1183156D01*
X1152524Y1184316D01*
X1152153Y1185486D01*
X1151811Y1186664D01*
X1151498Y1187851D01*
X1151215Y1189045D01*
X1150961Y1190245D01*
X1150736Y1191452D01*
X1150541Y1192663D01*
X1150376Y1193879D01*
X1150241Y1195099D01*
X1150135Y1196322D01*
X1150060Y1197547D01*
X1150015Y1198773D01*
X1150000Y1200000D01*
X1150000Y2200000D02*
X1150015Y2201227D01*
X1150060Y2202453D01*
X1150135Y2203678D01*
X1150241Y2204901D01*
X1150376Y2206121D01*
X1150541Y2207337D01*
X1150736Y2208548D01*
X1150961Y2209755D01*
X1151215Y2210955D01*
X1151498Y2212149D01*
X1151811Y2213336D01*
X1152153Y2214514D01*
X1152524Y2215684D01*
X1152923Y2216844D01*
X1153350Y2217995D01*
X1153806Y2219134D01*
X1154290Y2220262D01*
X1154801Y2221378D01*
X1155339Y2222481D01*
X1155904Y2223570D01*
X1156496Y2224645D01*
X1157114Y2225705D01*
X1157757Y2226750D01*
X1158427Y2227779D01*
X1159121Y2228790D01*
X1159840Y2229785D01*
X1160583Y2230762D01*
X1161349Y2231720D01*
X1162140Y2232659D01*
X1162952Y2233578D01*
X1163788Y2234477D01*
X1164645Y2235355D01*
X1165523Y2236212D01*
X1166422Y2237048D01*
X1167341Y2237860D01*
X1168280Y2238651D01*
X1169238Y2239417D01*
X1170215Y2240160D01*
X1171210Y2240879D01*
X1172221Y2241573D01*
X1173250Y2242243D01*
X1174295Y2242886D01*
X1175355Y2243504D01*
X1176430Y2244096D01*
X1177519Y2244661D01*
X1178622Y2245199D01*
X1179738Y2245710D01*
X1180866Y2246194D01*
X1182005Y2246650D01*
X1183156Y2247077D01*
X1184316Y2247476D01*
X1185486Y2247847D01*
X1186664Y2248189D01*
X1187851Y2248502D01*
X1189045Y2248785D01*
X1190245Y2249039D01*
X1191452Y2249264D01*
X1192663Y2249459D01*
X1193879Y2249624D01*
X1195099Y2249759D01*
X1196322Y2249865D01*
X1197547Y2249940D01*
X1198773Y2249985D01*
X1200000Y2250000D01*
X1201227Y2249985D01*
X1202453Y2249940D01*
X1203678Y2249865D01*
X1204901Y2249759D01*
X1206121Y2249624D01*
X1207337Y2249459D01*
X1208548Y2249264D01*
X1209755Y2249039D01*
X1210955Y2248785D01*
X1212149Y2248502D01*
X1213336Y2248189D01*
X1214514Y2247847D01*
X1215684Y2247476D01*
X1216844Y2247077D01*
X1217995Y2246650D01*
X1219134Y2246194D01*
X1220262Y2245710D01*
X1221378Y2245199D01*
X1222481Y2244661D01*
X1223570Y2244096D01*
X1224645Y2243504D01*
X1225705Y2242886D01*
X1226750Y2242243D01*
X1227779Y2241573D01*
X1228790Y2240879D01*
X1229785Y2240160D01*
X1230762Y2239417D01*
X1231720Y2238651D01*
X1232659Y2237860D01*
X1233578Y2237048D01*
X1234477Y2236212D01*
X1235355Y2235355D01*
X1236212Y2234477D01*
X1237048Y2233578D01*
X1237860Y2232659D01*
X1238651Y2231720D01*
X1239417Y2230762D01*
X1240160Y2229785D01*
X1240879Y2228790D01*
X1241573Y2227779D01*
X1242243Y2226750D01*
X1242886Y2225705D01*
X1243504Y2224645D01*
X1244096Y2223570D01*
X1244661Y2222481D01*
X1245199Y2221378D01*
X1245710Y2220262D01*
X1246194Y2219134D01*
X1246650Y2217995D01*
X1247077Y2216844D01*
X1247476Y2215684D01*
X1247847Y2214514D01*
X1248189Y2213336D01*
X1248502Y2212149D01*
X1248785Y2210955D01*
X1249039Y2209755D01*
X1249264Y2208548D01*
X1249459Y2207337D01*
X1249624Y2206121D01*
X1249759Y2204901D01*
X1249865Y2203678D01*
X1249940Y2202453D01*
X1249985Y2201227D01*
X1250000Y2200000D01*
X1249985Y2198773D01*
X1249940Y2197547D01*
X1249865Y2196322D01*
X1249759Y2195099D01*
X1249624Y2193879D01*
X1249459Y2192663D01*
X1249264Y2191452D01*
X1249039Y2190245D01*
X1248785Y2189045D01*
X1248502Y2187851D01*
X1248189Y2186664D01*
X1247847Y2185486D01*
X1247476Y2184316D01*
X1247077Y2183156D01*
X1246650Y2182005D01*
X1246194Y2180866D01*
X1245710Y2179738D01*
X1245199Y2178622D01*
X1244661Y2177519D01*
X1244096Y2176430D01*
X1243504Y2175355D01*
X1242886Y2174295D01*
X1242243Y2173250D01*
X1241573Y2172221D01*
X1240879Y2171210D01*
X1240160Y2170215D01*
X1239417Y2169238D01*
X1238651Y2168280D01*
X1237860Y2167341D01*
X1237048Y2166422D01*
X1236212Y2165523D01*
X1235355Y2164645D01*
X1234477Y2163788D01*
X1233578Y2162952D01*
X1232659Y2162140D01*
X1231720Y2161349D01*
X1230762Y2160583D01*
X1229785Y2159840D01*
X1228790Y2159121D01*
X1227779Y2158427D01*
X1226750Y2157757D01*
X1225705Y2157114D01*
X1224645Y2156496D01*
X1223570Y2155904D01*
X1222481Y2155339D01*
X1221378Y2154801D01*
X1220262Y2154290D01*
X1219134Y2153806D01*
X1217995Y2153350D01*
X1216844Y2152923D01*
X1215684Y2152524D01*
X1214514Y2152153D01*
X1213336Y2151811D01*
X1212149Y2151498D01*
X1210955Y2151215D01*
X1209755Y2150961D01*
X1208548Y2150736D01*
X1207337Y2150541D01*
X1206121Y2150376D01*
X1204901Y2150241D01*
X1203678Y2150135D01*
X1202453Y2150060D01*
X1201227Y2150015D01*
X1200000Y2150000D01*
X1198773Y2150015D01*
X1197547Y2150060D01*
X1196322Y2150135D01*
X1195099Y2150241D01*
X1193879Y2150376D01*
X1192663Y2150541D01*
X1191452Y2150736D01*
X1190245Y2150961D01*
X1189045Y2151215D01*
X1187851Y2151498D01*
X1186664Y2151811D01*
X1185486Y2152153D01*
X1184316Y2152524D01*
X1183156Y2152923D01*
X1182005Y2153350D01*
X1180866Y2153806D01*
X1179738Y2154290D01*
X1178622Y2154801D01*
X1177519Y2155339D01*
X1176430Y2155904D01*
X1175355Y2156496D01*
X1174295Y2157114D01*
X1173250Y2157757D01*
X1172221Y2158427D01*
X1171210Y2159121D01*
X1170215Y2159840D01*
X1169238Y2160583D01*
X1168280Y2161349D01*
X1167341Y2162140D01*
X1166422Y2162952D01*
X1165523Y2163788D01*
X1164645Y2164645D01*
X1163788Y2165523D01*
X1162952Y2166422D01*
X1162140Y2167341D01*
X1161349Y2168280D01*
X1160583Y2169238D01*
X1159840Y2170215D01*
X1159121Y2171210D01*
X1158427Y2172221D01*
X1157757Y2173250D01*
X1157114Y2174295D01*
X1156496Y2175355D01*
X1155904Y2176430D01*
X1155339Y2177519D01*
X1154801Y2178622D01*
X1154290Y2179738D01*
X1153806Y2180866D01*
X1153350Y2182005D01*
X1152923Y2183156D01*
X1152524Y2184316D01*
X1152153Y2185486D01*
X1151811Y2186664D01*
X1151498Y2187851D01*
X1151215Y2189045D01*
X1150961Y2190245D01*
X1150736Y2191452D01*
X1150541Y2192663D01*
X1150376Y2193879D01*
X1150241Y2195099D01*
X1150135Y2196322D01*
X1150060Y2197547D01*
X1150015Y2198773D01*
X1150000Y2200000D01*
X2150000Y1200000D02*
X2150015Y1201227D01*
X2150060Y1202453D01*
X2150135Y1203678D01*
X2150241Y1204901D01*
X2150376Y1206121D01*
X2150541Y1207337D01*
X2150736Y1208548D01*
X2150961Y1209755D01*
X2151215Y1210955D01*
X2151498Y1212149D01*
X2151811Y1213336D01*
X2152153Y1214514D01*
X2152524Y1215684D01*
X2152923Y1216844D01*
X2153350Y1217995D01*
X2153806Y1219134D01*
X2154290Y1220262D01*
X2154801Y1221378D01*
X2155339Y1222481D01*
X2155904Y1223570D01*
X2156496Y1224645D01*
X2157114Y1225705D01*
X2157757Y1226750D01*
X2158427Y1227779D01*
X2159121Y1228790D01*
X2159840Y1229785D01*
X2160583Y1230762D01*
X2161349Y1231720D01*
X2162140Y1232659D01*
X2162952Y1233578D01*
X2163788Y1234477D01*
X2164645Y1235355D01*
X2165523Y1236212D01*
X2166422Y1237048D01*
X2167341Y1237860D01*
X2168280Y1238651D01*
X2169238Y1239417D01*
X2170215Y1240160D01*
X2171210Y1240879D01*
X2172221Y1241573D01*
X2173250Y1242243D01*
X2174295Y1242886D01*
X2175355Y1243504D01*
X2176430Y1244096D01*
X2177519Y1244661D01*
X2178622Y1245199D01*
X2179738Y1245710D01*
X2180866Y1246194D01*
X2182005Y1246650D01*
X2183156Y1247077D01*
X2184316Y1247476D01*
X2185486Y1247847D01*
X2186664Y1248189D01*
X2187851Y1248502D01*
X2189045Y1248785D01*
X2190245Y1249039D01*
X2191452Y1249264D01*
X2192663Y1249459D01*
X2193879Y1249624D01*
X2195099Y1249759D01*
X2196322Y1249865D01*
X2197547Y1249940D01*
X2198773Y1249985D01*
X2200000Y1250000D01*
X2201227Y1249985D01*
X2202453Y1249940D01*
X2203678Y1249865D01*
X2204901Y1249759D01*
X2206121Y1249624D01*
X2207337Y1249459D01*
X2208548Y1249264D01*
X2209755Y1249039D01*
X2210955Y1248785D01*
X2212149Y1248502D01*
X2213336Y1248189D01*
X2214514Y1247847D01*
X2215684Y1247476D01*
X2216844Y1247077D01*
X2217995Y1246650D01*
X2219134Y1246194D01*
X2220262Y1245710D01*
X2221378Y1245199D01*
X2222481Y1244661D01*
X2223570Y1244096D01*
X2224645Y1243504D01*
X2225705Y1242886D01*
X2226750Y1242243D01*
X2227779Y1241573D01*
X2228790Y1240879D01*
X2229785Y1240160D01*
X2230762Y1239417D01*
X2231720Y1238651D01*
X2232659Y1237860D01*
X2233578Y1237048D01*
X2234477Y1236212D01*
X2235355Y1235355D01*
X2236212Y1234477D01*
X2237048Y1233578D01*
X2237860Y1232659D01*
X2238651Y1231720D01*
X2239417Y1230762D01*
X2240160Y1229785D01*
X2240879Y1228790D01*
X2241573Y1227779D01*
X2242243Y1226750D01*
X2242886Y1225705D01*
X2243504Y1224645D01*
X2244096Y1223570D01*
X2244661Y1222481D01*
X2245199Y1221378D01*
X2245710Y1220262D01*
X2246194Y1219134D01*
X2246650Y1217995D01*
X2247077Y1216844D01*
X2247476Y1215684D01*
X2247847Y1214514D01*
X2248189Y1213336D01*
X2248502Y1212149D01*
X2248785Y1210955D01*
X2249039Y1209755D01*
X2249264Y1208548D01*
X2249459Y1207337D01*
X2249624Y1206121D01*
X2249759Y1204901D01*
X2249865Y1203678D01*
X2249940Y1202453D01*
X2249985Y1201227D01*
X2250000Y1200000D01*
X2249985Y1198773D01*
X2249940Y1197547D01*
X2249865Y1196322D01*
X2249759Y1195099D01*
X2249624Y1193879D01*
X2249459Y1192663D01*
X2249264Y1191452D01*
X2249039Y1190245D01*
X2248785Y1189045D01*
X2248502Y1187851D01*
X2248189Y1186664D01*
X2247847Y1185486D01*
X2247476Y1184316D01*
X2247077Y1183156D01*
X2246650Y1182005D01*
X2246194Y1180866D01*
X2245710Y1179738D01*
X2245199Y1178622D01*
X2244661Y1177519D01*
X2244096Y1176430D01*
X2243504Y1175355D01*
X2242886Y1174295D01*
X2242243Y1173250D01*
X2241573Y1172221D01*
X2240879Y1171210D01*
X2240160Y1170215D01*
X2239417Y1169238D01*
X2238651Y1168280D01*
X2237860Y1167341D01*
X2237048Y1166422D01*
X2236212Y1165523D01*
X2235355Y1164645D01*
X2234477Y1163788D01*
X2233578Y1162952D01*
X2232659Y1162140D01*
X2231720Y1161349D01*
X2230762Y1160583D01*
X2229785Y1159840D01*
X2228790Y1159121D01*
X2227779Y1158427D01*
X2226750Y1157757D01*
X2225705Y1157114D01*
X2224645Y1156496D01*
X2223570Y1155904D01*
X2222481Y1155339D01*
X2221378Y1154801D01*
X2220262Y1154290D01*
X2219134Y1153806D01*
X2217995Y1153350D01*
X2216844Y1152923D01*
X2215684Y1152524D01*
X2214514Y1152153D01*
X2213336Y1151811D01*
X2212149Y1151498D01*
X2210955Y1151215D01*
X2209755Y1150961D01*
X2208548Y1150736D01*
X2207337Y1150541D01*
X2206121Y1150376D01*
X2204901Y1150241D01*
X2203678Y1150135D01*
X2202453Y1150060D01*
X2201227Y1150015D01*
X2200000Y1150000D01*
X2198773Y1150015D01*
X2197547Y1150060D01*
X2196322Y1150135D01*
X2195099Y1150241D01*
X2193879Y1150376D01*
X2192663Y1150541D01*
X2191452Y1150736D01*
X2190245Y1150961D01*
X2189045Y1151215D01*
X2187851Y1151498D01*
X2186664Y1151811D01*
X2185486Y1152153D01*
X2184316Y1152524D01*
X2183156Y1152923D01*
X2182005Y1153350D01*
X2180866Y1153806D01*
X2179738Y1154290D01*
X2178622Y1154801D01*
X2177519Y1155339D01*
X2176430Y1155904D01*
X2175355Y1156496D01*
X2174295Y1157114D01*
X2173250Y1157757D01*
X2172221Y1158427D01*
X2171210Y1159121D01*
X2170215Y1159840D01*
X2169238Y1160583D01*
X2168280Y1161349D01*
X2167341Y1162140D01*
X2166422Y1162952D01*
X2165523Y1163788D01*
X2164645Y1164645D01*
X2163788Y1165523D01*
X2162952Y1166422D01*
X2162140Y1167341D01*
X2161349Y1168280D01*
X2160583Y1169238D01*
X2159840Y1170215D01*
X2159121Y1171210D01*
X2158427Y1172221D01*
X2157757Y1173250D01*
X2157114Y1174295D01*
X2156496Y1175355D01*
X2155904Y1176430D01*
X2155339Y1177519D01*
X2154801Y1178622D01*
X2154290Y1179738D01*
X2153806Y1180866D01*
X2153350Y1182005D01*
X2152923Y1183156D01*
X2152524Y1184316D01*
X2152153Y1185486D01*
X2151811Y1186664D01*
X2151498Y1187851D01*
X2151215Y1189045D01*
X2150961Y1190245D01*
X2150736Y1191452D01*
X2150541Y1192663D01*
X2150376Y1193879D01*
X2150241Y1195099D01*
X2150135Y1196322D01*
X2150060Y1197547D01*
X2150015Y1198773D01*
X2150000Y1200000D01*
D11*
X0Y400000D02*
X400000Y0D01*
X2000000Y0D01*
X2400000Y400000D01*
X2400000Y2000000D01*
X2000000Y2400000D01*
X400000Y2400000D01*
X0Y2000000D01*
X0Y400000D01*
X1250000Y1198036D02*
X1249692Y1194119D01*
X1249077Y1190238D01*
X1248160Y1186417D01*
X1246946Y1182681D01*
X1245442Y1179051D01*
X1243658Y1175550D01*
X1241606Y1172200D01*
X1239296Y1169021D01*
X1236744Y1166034D01*
X1233966Y1163256D01*
X1230979Y1160704D01*
X1227800Y1158394D01*
X1224450Y1156342D01*
X1220949Y1154558D01*
X1217319Y1153054D01*
X1213583Y1151840D01*
X1209762Y1150923D01*
X1205881Y1150308D01*
X1201964Y1150000D01*
X1198036Y1150000D01*
X1194119Y1150308D01*
X1190238Y1150923D01*
X1186417Y1151840D01*
X1182681Y1153054D01*
X1179051Y1154558D01*
X1175550Y1156342D01*
X1172200Y1158394D01*
X1169021Y1160704D01*
X1166034Y1163256D01*
X1163256Y1166034D01*
X1160704Y1169021D01*
X1158394Y1172200D01*
X1156342Y1175550D01*
X1154558Y1179051D01*
X1153054Y1182681D01*
X1151840Y1186417D01*
X1150923Y1190238D01*
X1150308Y1194119D01*
X1150000Y1198036D01*
X1150000Y1201964D01*
X1150308Y1205881D01*
X1150923Y1209762D01*
X1151840Y1213583D01*
X1153054Y1217319D01*
X1154558Y1220949D01*
X1156342Y1224450D01*
X1158394Y1227800D01*
X1160704Y1230979D01*
X1163256Y1233966D01*
X1166034Y1236744D01*
X1169021Y1239296D01*
X1172200Y1241606D01*
X1175550Y1243658D01*
X1179051Y1245442D01*
X1182681Y1246946D01*
X1186417Y1248160D01*
X1190238Y1249077D01*
X1194119Y1249692D01*
X1198036Y1250000D01*
X1201964Y1250000D01*
X1205881Y1249692D01*
X1209762Y1249077D01*
X1213583Y1248160D01*
X1217319Y1246946D01*
X1220949Y1245442D01*
X1224450Y1243658D01*
X1227800Y1241606D01*
X1230979Y1239296D01*
X1233966Y1236744D01*
X1236744Y1233966D01*
X1239296Y1230979D01*
X1241606Y1227800D01*
X1243658Y1224450D01*
X1245442Y1220949D01*
X1246946Y1217319D01*
X1248160Y1213583D01*
X1249077Y1209762D01*
X1249692Y1205881D01*
X1250000Y1201964D01*
X1250000Y1198036D01*
X1250000Y2198036D02*
X1249692Y2194119D01*
X1249077Y2190238D01*
X1248160Y2186417D01*
X1246946Y2182681D01*
X1245442Y2179051D01*
X1243658Y2175550D01*
X1241606Y2172200D01*
X1239296Y2169021D01*
X1236744Y2166034D01*
X1233966Y2163256D01*
X1230979Y2160704D01*
X1227800Y2158394D01*
X1224450Y2156342D01*
X1220949Y2154558D01*
X1217319Y2153054D01*
X1213583Y2151840D01*
X1209762Y2150923D01*
X1205881Y2150308D01*
X1201964Y2150000D01*
X1198036Y2150000D01*
X1194119Y2150308D01*
X1190238Y2150923D01*
X1186417Y2151840D01*
X1182681Y2153054D01*
X1179051Y2154558D01*
X1175550Y2156342D01*
X1172200Y2158394D01*
X1169021Y2160704D01*
X1166034Y2163256D01*
X1163256Y2166034D01*
X1160704Y2169021D01*
X1158394Y2172200D01*
X1156342Y2175550D01*
X1154558Y2179051D01*
X1153054Y2182681D01*
X1151840Y2186417D01*
X1150923Y2190238D01*
X1150308Y2194119D01*
X1150000Y2198036D01*
X1150000Y2201964D01*
X1150308Y2205881D01*
X1150923Y2209762D01*
X1151840Y2213583D01*
X1153054Y2217319D01*
X1154558Y2220949D01*
X1156342Y2224450D01*
X1158394Y2227800D01*
X1160704Y2230979D01*
X1163256Y2233966D01*
X1166034Y2236744D01*
X1169021Y2239296D01*
X1172200Y2241606D01*
X1175550Y2243658D01*
X1179051Y2245442D01*
X1182681Y2246946D01*
X1186417Y2248160D01*
X1190238Y2249077D01*
X1194119Y2249692D01*
X1198036Y2250000D01*
X1201964Y2250000D01*
X1205881Y2249692D01*
X1209762Y2249077D01*
X1213583Y2248160D01*
X1217319Y2246946D01*
X1220949Y2245442D01*
X1224450Y2243658D01*
X1227800Y2241606D01*
X1230979Y2239296D01*
X1233966Y2236744D01*
X1236744Y2233966D01*
X1239296Y2230979D01*
X1241606Y2227800D01*
X1243658Y2224450D01*
X1245442Y2220949D01*
X1246946Y2217319D01*
X1248160Y2213583D01*
X1249077Y2209762D01*
X1249692Y2205881D01*
X1250000Y2201964D01*
X1250000Y2198036D01*
X2250000Y1198036D02*
X2249692Y1194119D01*
X2249077Y1190238D01*
X2248160Y1186417D01*
X2246946Y1182681D01*
X2245442Y1179051D01*
X2243658Y1175550D01*
X2241606Y1172200D01*
X2239296Y1169021D01*
X2236744Y1166034D01*
X2233966Y1163256D01*
X2230979Y1160704D01*
X2227800Y1158394D01*
X2224450Y1156342D01*
X2220949Y1154558D01*
X2217319Y1153054D01*
X2213583Y1151840D01*
X2209762Y1150923D01*
X2205881Y1150308D01*
X2201964Y1150000D01*
X2198036Y1150000D01*
X2194119Y1150308D01*
X2190238Y1150923D01*
X2186417Y1151840D01*
X2182681Y1153054D01*
X2179051Y1154558D01*
X2175550Y1156342D01*
X2172200Y1158394D01*
X2169021Y1160704D01*
X2166034Y1163256D01*
X2163256Y1166034D01*
X2160704Y1169021D01*
X2158394Y1172200D01*
X2156342Y1175550D01*
X2154558Y1179051D01*
X2153054Y1182681D01*
X2151840Y1186417D01*
X2150923Y1190238D01*
X2150308Y1194119D01*
X2150000Y1198036D01*
X2150000Y1201964D01*
X2150308Y1205881D01*
X2150923Y1209762D01*
X2151840Y1213583D01*
X2153054Y1217319D01*
X2154558Y1220949D01*
X2156342Y1224450D01*
X2158394Y1227800D01*
X2160704Y1230979D01*
X2163256Y1233966D01*
X2166034Y1236744D01*
X2169021Y1239296D01*
X2172200Y1241606D01*
X2175550Y1243658D01*
X2179051Y1245442D01*
X2182681Y1246946D01*
X2186417Y1248160D01*
X2190238Y1249077D01*
X2194119Y1249692D01*
X2198036Y1250000D01*
X2201964Y1250000D01*
X2205881Y1249692D01*
X2209762Y1249077D01*
X2213583Y1248160D01*
X2217319Y1246946D01*
X2220949Y1245442D01*
X2224450Y1243658D01*
X2227800Y1241606D01*
X2230979Y1239296D01*
X2233966Y1236744D01*
X2236744Y1233966D01*
X2239296Y1230979D01*
X2241606Y1227800D01*
X2243658Y1224450D01*
X2245442Y1220949D01*
X2246946Y1217319D01*
X2248160Y1213583D01*
X2249077Y1209762D01*
X2249692Y1205881D01*
X2250000Y1201964D01*
X2250000Y1198036D01*
M02*
