M48
;GenerationSoftware,Autodesk,EAGLE,9.6.2*%
;CreationDate,2022-01-31T17:41:27Z*%
FMAT,2
ICI,OFF
INCH,TZ,00.0000
T5C0.0200
T4C0.0394
T3C0.0400
T2C0.1000
%
G90
M72
T2
X22000Y12000
X12000Y22000
X12000Y12000
T3
X3110Y5280
X12000Y950
X11000Y1050
X13000Y1050
X14000Y950
X4890Y5280
X4890Y2720
X3110Y2720
X4890Y21280
X4890Y18720
X20890Y5280
X19110Y5280
X20890Y2720
X19110Y2720
X20890Y21280
X19110Y21280
X20890Y18720
X19110Y18720
X3110Y18720
X3110Y21280
T4
X850Y12984
X850Y12000
X850Y11016
X2150Y11016
X2150Y12000
X2150Y12984
X2157Y14953
X2157Y9047
T5
X7300Y6200
X12500Y7000
X12000Y7000
X8000Y6000
X15310Y10000
X9000Y6000
X10000Y15500
X13500Y16500
X14000Y5000
X4610Y8000
X10000Y4000
X8500Y11016
X4000Y1440
X6500Y4000
X5500Y4000
X20000Y9000
X10500Y3500
X11000Y3000
X18500Y2500
X11000Y7000
X10000Y9500
X11500Y3000
X14800Y12000
M30