G04 EAGLE Gerber RS-274X export*
G75*
%MOIN*%
%FSLAX36Y36*%
%LPD*%
%INBottom Copper Layer*%
%IPPOS*%
%AMOC8*
5,1,8,0,0,1.08239X$1,22.5*%
G01*
%ADD10P,0.108239X8X292.500000*%
%ADD11R,0.100000X0.100000*%
%ADD12R,0.074000X0.074000*%
%ADD13C,0.074000*%
%ADD14C,0.076000*%
%ADD15C,0.064000*%
%ADD16C,0.040000*%
%ADD17C,0.010000*%
%ADD18C,0.016000*%


D10*
X215748Y904724D03*
D11*
X215748Y1495276D03*
D12*
X1100000Y105000D03*
D13*
X1200000Y95000D03*
X1300000Y105000D03*
X1400000Y95000D03*
D14*
X85039Y1101575D03*
X85039Y1200000D03*
X85039Y1298425D03*
X214961Y1101575D03*
X214961Y1200000D03*
X214961Y1298425D03*
D15*
X489000Y560000D02*
X489000Y496000D01*
X311000Y496000D02*
X311000Y560000D01*
X489000Y304000D02*
X489000Y240000D01*
X311000Y240000D02*
X311000Y304000D01*
X489000Y2096000D02*
X489000Y2160000D01*
X311000Y2160000D02*
X311000Y2096000D01*
X489000Y1904000D02*
X489000Y1840000D01*
X311000Y1840000D02*
X311000Y1904000D01*
X1911000Y1904000D02*
X1911000Y1840000D01*
X2089000Y1840000D02*
X2089000Y1904000D01*
X1911000Y2096000D02*
X1911000Y2160000D01*
X2089000Y2160000D02*
X2089000Y2096000D01*
X1911000Y304000D02*
X1911000Y240000D01*
X2089000Y240000D02*
X2089000Y304000D01*
X1911000Y496000D02*
X1911000Y560000D01*
X2089000Y560000D02*
X2089000Y496000D01*
D16*
X1250000Y700000D03*
D17*
X1250000Y550000D01*
X1150000Y450000D01*
X800000Y450000D01*
X730000Y520000D01*
X730000Y620000D01*
D16*
X730000Y620000D03*
X1200000Y700000D03*
D17*
X1200000Y600000D01*
X1100000Y500000D01*
X850000Y500000D01*
X800000Y550000D01*
X800000Y600000D01*
D16*
X800000Y600000D03*
X1531000Y1000000D03*
X900000Y600000D03*
X1000000Y1550000D03*
D18*
X1100000Y1650000D01*
X1350000Y1650000D01*
D16*
X1350000Y1650000D03*
D18*
X1531000Y1469000D02*
X1531000Y1000000D01*
X1531000Y1469000D02*
X1350000Y1650000D01*
X900000Y800000D02*
X900000Y600000D01*
X900000Y800000D02*
X900000Y1200000D01*
X900000Y1450000D01*
X1000000Y1550000D01*
D16*
X1400000Y500000D03*
D18*
X895276Y1195276D02*
X900000Y1200000D01*
X895276Y1195276D02*
X315748Y1195276D01*
X895276Y1195276D02*
X1400000Y690551D01*
X1400000Y500000D01*
X311000Y2128000D02*
X250000Y2128000D01*
X250000Y1872000D02*
X311000Y1872000D01*
X250000Y1872000D02*
X250000Y2128000D01*
X215748Y1495276D02*
X311000Y1495276D01*
X311000Y1500000D01*
X311000Y1872000D01*
X311000Y1500000D02*
X315748Y1500000D01*
X315748Y1195276D01*
X311000Y528000D02*
X250000Y528000D01*
X250000Y272000D02*
X311000Y272000D01*
X250000Y272000D02*
X250000Y528000D01*
X2089000Y272000D02*
X2150000Y272000D01*
X2150000Y528000D02*
X2089000Y528000D01*
X2150000Y528000D02*
X2150000Y272000D01*
X2089000Y528000D02*
X2089000Y1000000D01*
X1531000Y1000000D01*
X2089000Y2128000D02*
X2150000Y2128000D01*
X2150000Y1872000D02*
X2089000Y1872000D01*
X2150000Y1872000D02*
X2150000Y2128000D01*
X2089000Y1872000D02*
X2089000Y1650000D01*
X1350000Y1650000D01*
X900000Y800000D02*
X461000Y800000D01*
D16*
X461000Y800000D03*
X1000000Y400000D03*
D17*
X1000000Y100000D01*
X1095000Y100000D01*
X1100000Y105000D01*
D18*
X400000Y1101575D02*
X214961Y1101575D01*
D16*
X850000Y1101575D03*
D18*
X400000Y1101575D01*
D17*
X400000Y144016D01*
D18*
X214961Y1101575D02*
X85039Y1101575D01*
D16*
X400000Y144016D03*
D17*
X550000Y400000D02*
X650000Y400000D01*
D16*
X650000Y400000D03*
X550000Y400000D03*
X2000000Y900000D03*
D17*
X2000000Y150000D01*
X1700000Y150000D01*
D16*
X1050000Y350000D03*
D17*
X1050000Y200000D01*
X1700000Y200000D01*
X1700000Y150000D01*
D16*
X1100000Y300000D03*
D17*
X1100000Y250000D01*
X1850000Y250000D01*
D16*
X1850000Y250000D03*
X1100000Y700000D03*
D17*
X1000000Y800000D02*
X1000000Y950000D01*
X1000000Y800000D02*
X1100000Y700000D01*
D16*
X1000000Y950000D03*
D17*
X1450000Y1200000D02*
X1450000Y350000D01*
D16*
X1150000Y300000D03*
D17*
X1400000Y300000D01*
X1450000Y350000D01*
D16*
X1480000Y1200000D03*
D17*
X1450000Y1200000D01*
M02*
