G04 EAGLE Gerber RS-274X export*
G75*
%MOMM*%
%FSLAX34Y34*%
%LPD*%
%INBottom Copper*%
%IPPOS*%
%AMOC8*
5,1,8,0,0,1.08239X$1,22.5*%
G01*
%ADD10R,2.540000X2.540000*%
%ADD11R,1.879600X1.879600*%
%ADD12C,1.879600*%
%ADD13C,1.930400*%
%ADD14C,1.016000*%
%ADD15C,0.254000*%
%ADD16C,0.406400*%
%ADD17C,0.635000*%
%ADD18C,0.152400*%
%ADD19C,1.300000*%


D10*
X54800Y229800D03*
X54800Y379800D03*
D11*
X279400Y45720D03*
D12*
X304800Y43180D03*
X330200Y45720D03*
X355600Y43180D03*
D13*
X53350Y279800D03*
X53350Y304800D03*
X53350Y329800D03*
X86350Y279800D03*
X86350Y304800D03*
X86350Y329800D03*
D11*
X177800Y585470D03*
D12*
X203200Y582930D03*
X228600Y585470D03*
X254000Y582930D03*
D14*
X317500Y177800D03*
D15*
X317500Y146050D01*
X304800Y133350D01*
X285750Y114300D01*
X203200Y114300D01*
X185420Y132080D01*
X185420Y157480D01*
D14*
X185420Y157480D03*
X304800Y177800D03*
D15*
X304800Y152400D01*
X279400Y127000D01*
X215900Y127000D01*
X203200Y139700D01*
X203200Y152400D01*
D14*
X203200Y152400D03*
X388874Y254000D03*
X228600Y152400D03*
X254000Y393700D03*
D16*
X279400Y419100D01*
X342900Y419100D01*
D14*
X342900Y419100D03*
D16*
X388874Y373126D02*
X388874Y254000D01*
X388874Y373126D02*
X342900Y419100D01*
X228600Y203200D02*
X228600Y152400D01*
X228600Y203200D02*
X228600Y304800D01*
X228600Y368300D01*
X254000Y393700D01*
D14*
X355600Y127000D03*
D16*
X227400Y303600D02*
X228600Y304800D01*
X227400Y303600D02*
X111950Y303600D01*
X227400Y303600D02*
X355600Y175400D01*
X355600Y127000D01*
X78994Y379800D02*
X54800Y379800D01*
X78994Y379800D02*
X78994Y381000D01*
X111950Y381000D01*
X111950Y303600D01*
X117094Y203200D02*
X228600Y203200D01*
D14*
X117094Y203200D03*
D16*
X388874Y254000D02*
X517500Y254000D01*
D14*
X517500Y254000D03*
X215900Y279800D03*
D16*
X86350Y279800D01*
X53350Y279800D01*
D14*
X279400Y177800D03*
D15*
X254000Y203200D02*
X254000Y241300D01*
X254000Y203200D02*
X279400Y177800D01*
D14*
X254000Y241300D03*
D15*
X368300Y304800D02*
X368300Y88900D01*
D14*
X375920Y304800D03*
D15*
X368300Y304800D01*
D14*
X368300Y88900D03*
X317500Y114300D03*
D15*
X317500Y81280D02*
X355600Y43180D01*
X317500Y81280D02*
X317500Y114300D01*
D14*
X304800Y114300D03*
D15*
X304800Y71120D02*
X330200Y45720D01*
X304800Y71120D02*
X304800Y114300D01*
X317500Y127000D01*
X330200Y127000D01*
X349250Y107950D01*
X349250Y82550D01*
X355600Y76200D01*
X419100Y76200D02*
X431800Y88900D01*
D14*
X431800Y88900D03*
D15*
X419100Y76200D02*
X355600Y76200D01*
D16*
X54800Y148400D02*
X54800Y229800D01*
X304800Y50495D02*
X304800Y43180D01*
X304800Y50495D02*
X291795Y63500D01*
X139700Y63500D02*
X54800Y148400D01*
X139700Y63500D02*
X291795Y63500D01*
D15*
X457200Y50800D02*
X457200Y177800D01*
D14*
X457200Y177800D03*
X457200Y50800D03*
X165100Y101600D03*
D15*
X124460Y101600D01*
D14*
X124460Y101600D03*
D17*
X177800Y585470D02*
X25400Y585470D01*
X25400Y50800D01*
X50800Y25400D01*
X584200Y25400D01*
X584200Y584200D01*
D16*
X254000Y584200D02*
X254000Y582930D01*
D17*
X254000Y584200D02*
X584200Y584200D01*
D18*
X165100Y596900D02*
X165100Y598170D01*
X165100Y596900D02*
X12700Y596900D01*
X12700Y12700D01*
X596900Y12700D01*
X596900Y596900D01*
X228600Y596900D01*
X228600Y585470D01*
X203200Y582930D02*
X203200Y598170D01*
X165100Y598170D01*
D19*
X12700Y12700D03*
M02*
