G04 EAGLE Gerber RS-274X export*
G75*
%MOMM*%
%FSLAX34Y34*%
%LPD*%
%IN*%
%IPPOS*%
%AMOC8*
5,1,8,0,0,1.08239X$1,22.5*%
G01*
%ADD10C,0.254000*%


D10*
X0Y0D02*
X609600Y0D01*
X609600Y609600D01*
X0Y609600D01*
X0Y0D01*
X317500Y304301D02*
X317422Y303306D01*
X317266Y302320D01*
X317033Y301350D01*
X316724Y300401D01*
X316342Y299479D01*
X315889Y298590D01*
X315368Y297739D01*
X314781Y296931D01*
X314133Y296173D01*
X313427Y295467D01*
X312669Y294819D01*
X311861Y294232D01*
X311010Y293711D01*
X310121Y293258D01*
X309199Y292876D01*
X308250Y292567D01*
X307280Y292334D01*
X306294Y292178D01*
X305299Y292100D01*
X304301Y292100D01*
X303306Y292178D01*
X302320Y292334D01*
X301350Y292567D01*
X300401Y292876D01*
X299479Y293258D01*
X298590Y293711D01*
X297739Y294232D01*
X296931Y294819D01*
X296173Y295467D01*
X295467Y296173D01*
X294819Y296931D01*
X294232Y297739D01*
X293711Y298590D01*
X293258Y299479D01*
X292876Y300401D01*
X292567Y301350D01*
X292334Y302320D01*
X292178Y303306D01*
X292100Y304301D01*
X292100Y305299D01*
X292178Y306294D01*
X292334Y307280D01*
X292567Y308250D01*
X292876Y309199D01*
X293258Y310121D01*
X293711Y311010D01*
X294232Y311861D01*
X294819Y312669D01*
X295467Y313427D01*
X296173Y314133D01*
X296931Y314781D01*
X297739Y315368D01*
X298590Y315889D01*
X299479Y316342D01*
X300401Y316724D01*
X301350Y317033D01*
X302320Y317266D01*
X303306Y317422D01*
X304301Y317500D01*
X305299Y317500D01*
X306294Y317422D01*
X307280Y317266D01*
X308250Y317033D01*
X309199Y316724D01*
X310121Y316342D01*
X311010Y315889D01*
X311861Y315368D01*
X312669Y314781D01*
X313427Y314133D01*
X314133Y313427D01*
X314781Y312669D01*
X315368Y311861D01*
X315889Y311010D01*
X316342Y310121D01*
X316724Y309199D01*
X317033Y308250D01*
X317266Y307280D01*
X317422Y306294D01*
X317500Y305299D01*
X317500Y304301D01*
X317500Y558301D02*
X317422Y557306D01*
X317266Y556320D01*
X317033Y555350D01*
X316724Y554401D01*
X316342Y553479D01*
X315889Y552590D01*
X315368Y551739D01*
X314781Y550931D01*
X314133Y550173D01*
X313427Y549467D01*
X312669Y548819D01*
X311861Y548232D01*
X311010Y547711D01*
X310121Y547258D01*
X309199Y546876D01*
X308250Y546567D01*
X307280Y546334D01*
X306294Y546178D01*
X305299Y546100D01*
X304301Y546100D01*
X303306Y546178D01*
X302320Y546334D01*
X301350Y546567D01*
X300401Y546876D01*
X299479Y547258D01*
X298590Y547711D01*
X297739Y548232D01*
X296931Y548819D01*
X296173Y549467D01*
X295467Y550173D01*
X294819Y550931D01*
X294232Y551739D01*
X293711Y552590D01*
X293258Y553479D01*
X292876Y554401D01*
X292567Y555350D01*
X292334Y556320D01*
X292178Y557306D01*
X292100Y558301D01*
X292100Y559299D01*
X292178Y560294D01*
X292334Y561280D01*
X292567Y562250D01*
X292876Y563199D01*
X293258Y564121D01*
X293711Y565010D01*
X294232Y565861D01*
X294819Y566669D01*
X295467Y567427D01*
X296173Y568133D01*
X296931Y568781D01*
X297739Y569368D01*
X298590Y569889D01*
X299479Y570342D01*
X300401Y570724D01*
X301350Y571033D01*
X302320Y571266D01*
X303306Y571422D01*
X304301Y571500D01*
X305299Y571500D01*
X306294Y571422D01*
X307280Y571266D01*
X308250Y571033D01*
X309199Y570724D01*
X310121Y570342D01*
X311010Y569889D01*
X311861Y569368D01*
X312669Y568781D01*
X313427Y568133D01*
X314133Y567427D01*
X314781Y566669D01*
X315368Y565861D01*
X315889Y565010D01*
X316342Y564121D01*
X316724Y563199D01*
X317033Y562250D01*
X317266Y561280D01*
X317422Y560294D01*
X317500Y559299D01*
X317500Y558301D01*
X571500Y304301D02*
X571422Y303306D01*
X571266Y302320D01*
X571033Y301350D01*
X570724Y300401D01*
X570342Y299479D01*
X569889Y298590D01*
X569368Y297739D01*
X568781Y296931D01*
X568133Y296173D01*
X567427Y295467D01*
X566669Y294819D01*
X565861Y294232D01*
X565010Y293711D01*
X564121Y293258D01*
X563199Y292876D01*
X562250Y292567D01*
X561280Y292334D01*
X560294Y292178D01*
X559299Y292100D01*
X558301Y292100D01*
X557306Y292178D01*
X556320Y292334D01*
X555350Y292567D01*
X554401Y292876D01*
X553479Y293258D01*
X552590Y293711D01*
X551739Y294232D01*
X550931Y294819D01*
X550173Y295467D01*
X549467Y296173D01*
X548819Y296931D01*
X548232Y297739D01*
X547711Y298590D01*
X547258Y299479D01*
X546876Y300401D01*
X546567Y301350D01*
X546334Y302320D01*
X546178Y303306D01*
X546100Y304301D01*
X546100Y305299D01*
X546178Y306294D01*
X546334Y307280D01*
X546567Y308250D01*
X546876Y309199D01*
X547258Y310121D01*
X547711Y311010D01*
X548232Y311861D01*
X548819Y312669D01*
X549467Y313427D01*
X550173Y314133D01*
X550931Y314781D01*
X551739Y315368D01*
X552590Y315889D01*
X553479Y316342D01*
X554401Y316724D01*
X555350Y317033D01*
X556320Y317266D01*
X557306Y317422D01*
X558301Y317500D01*
X559299Y317500D01*
X560294Y317422D01*
X561280Y317266D01*
X562250Y317033D01*
X563199Y316724D01*
X564121Y316342D01*
X565010Y315889D01*
X565861Y315368D01*
X566669Y314781D01*
X567427Y314133D01*
X568133Y313427D01*
X568781Y312669D01*
X569368Y311861D01*
X569889Y311010D01*
X570342Y310121D01*
X570724Y309199D01*
X571033Y308250D01*
X571266Y307280D01*
X571422Y306294D01*
X571500Y305299D01*
X571500Y304301D01*
M02*
