G04 EAGLE Gerber RS-274X export*
G75*
%MOMM*%
%FSLAX34Y34*%
%LPD*%
%INSoldermask Top*%
%IPPOS*%
%AMOC8*
5,1,8,0,0,1.08239X$1,22.5*%
G01*
%ADD10C,2.743200*%
%ADD11C,2.540000*%
%ADD12R,2.743200X2.743200*%
%ADD13R,1.503200X1.703200*%
%ADD14R,2.003200X1.803200*%
%ADD15R,2.082800X2.082800*%
%ADD16C,2.082800*%
%ADD17R,1.303200X2.503200*%
%ADD18R,2.006200X1.803200*%
%ADD19R,0.503200X1.403000*%
%ADD20C,2.133600*%
%ADD21R,1.503200X3.603200*%
%ADD22R,1.603200X1.803200*%
%ADD23C,1.503200*%


D10*
X304800Y304800D03*
X304800Y558800D03*
X558800Y304800D03*
D11*
X304800Y558800D03*
D12*
X54800Y229800D03*
X54800Y379800D03*
D13*
X111100Y177800D03*
X92100Y177800D03*
X111100Y431800D03*
X92100Y431800D03*
X498500Y431800D03*
X517500Y431800D03*
X498500Y177800D03*
X517500Y177800D03*
D14*
X381000Y141000D03*
X381000Y113000D03*
D15*
X279400Y45720D03*
D16*
X304800Y43180D03*
X330200Y45720D03*
X355600Y43180D03*
D17*
X220200Y224700D03*
X203200Y224700D03*
X186200Y224700D03*
X186200Y181700D03*
X203200Y181700D03*
X220200Y181700D03*
X220200Y427900D03*
X203200Y427900D03*
X186200Y427900D03*
X186200Y384900D03*
X203200Y384900D03*
X220200Y384900D03*
X389400Y384900D03*
X406400Y384900D03*
X423400Y384900D03*
X423400Y427900D03*
X406400Y427900D03*
X389400Y427900D03*
X389400Y181700D03*
X406400Y181700D03*
X423400Y181700D03*
X423400Y224700D03*
X406400Y224700D03*
X389400Y224700D03*
D18*
X431800Y141220D03*
X431800Y112780D03*
D19*
X334049Y98000D03*
X327549Y98000D03*
X321050Y98000D03*
X314550Y98000D03*
X308050Y98000D03*
X301550Y98000D03*
X295050Y98000D03*
X288550Y98000D03*
X334049Y156001D03*
X327549Y156001D03*
X321050Y156001D03*
X314550Y156001D03*
X308050Y156001D03*
X301550Y156001D03*
X295050Y156001D03*
X288550Y156001D03*
X282050Y156001D03*
X275551Y156001D03*
X282050Y98000D03*
X275551Y98000D03*
D20*
X53350Y279800D03*
X53350Y304800D03*
X53350Y329800D03*
X86350Y279800D03*
X86350Y304800D03*
X86350Y329800D03*
D21*
X348300Y304800D03*
X261300Y304800D03*
D22*
X124100Y61600D03*
X124100Y141600D03*
X79100Y141600D03*
X79100Y61600D03*
X124100Y468000D03*
X124100Y548000D03*
X79100Y548000D03*
X79100Y468000D03*
X485500Y548000D03*
X485500Y468000D03*
X530500Y468000D03*
X530500Y548000D03*
X485500Y141600D03*
X485500Y61600D03*
X530500Y61600D03*
X530500Y141600D03*
D15*
X177800Y585470D03*
D16*
X203200Y582930D03*
X228600Y585470D03*
X254000Y582930D03*
D23*
X12700Y12700D03*
M02*
