G75*
%MOIN*%
%OFA0B0*%
%FSLAX25Y25*%
%IPPOS*%
%LPD*%
%AMOC8*
5,1,8,0,0,1.08239X$1,22.5*
%
%ADD10C,0.00000*%
%ADD11C,0.01100*%
%ADD12R,0.13000X0.17000*%
%ADD13R,0.07400X0.07400*%
%ADD14C,0.07400*%
%ADD15C,0.01000*%
%ADD16C,0.01600*%
D10*
X0004867Y0024750D02*
X0004867Y0101915D01*
X0134985Y0101915D01*
X0134985Y0024750D01*
X0004867Y0024750D01*
D11*
X0106043Y0090300D02*
X0109980Y0090300D01*
X0108012Y0090300D02*
X0108012Y0096205D01*
X0109980Y0094237D01*
X0112489Y0093253D02*
X0116426Y0093253D01*
X0118934Y0095221D02*
X0118934Y0096205D01*
X0118934Y0095221D02*
X0120903Y0093253D01*
X0120903Y0090300D01*
X0120903Y0093253D02*
X0122871Y0095221D01*
X0122871Y0096205D01*
X0125380Y0096205D02*
X0129317Y0090300D01*
X0125380Y0090300D02*
X0129317Y0096205D01*
X0116426Y0096205D02*
X0116426Y0090300D01*
X0112489Y0090300D02*
X0112489Y0096205D01*
D12*
X0127367Y0044750D03*
X0012367Y0044750D03*
D13*
X0014367Y0064750D03*
D14*
X0015367Y0074750D03*
X0014367Y0084750D03*
X0015367Y0094750D03*
D15*
X0089867Y0094750D01*
X0124867Y0044750D01*
X0127367Y0044750D01*
X0127367Y0049750D01*
X0014867Y0044750D02*
X0012367Y0044750D01*
X0014367Y0044750D02*
X0014367Y0064750D01*
D16*
X0014367Y0044750D02*
X0014867Y0044750D01*
M02*
