G75*
%MOIN*%
%OFA0B0*%
%FSLAX25Y25*%
%IPPOS*%
%LPD*%
%AMOC8*
5,1,8,0,0,1.08239X$1,22.5*
%
%ADD10C,0.00000*%
%ADD11C,0.01100*%
%ADD12R,0.06299X0.07087*%
%ADD13R,0.07400X0.07400*%
%ADD14C,0.07400*%
%ADD15R,0.07874X0.04331*%
%ADD16R,0.06299X0.07098*%
%ADD17R,0.07098X0.06299*%
%ADD18R,0.01181X0.04724*%
%ADD19C,0.01000*%
D10*
X0004867Y0024750D02*
X0004867Y0101915D01*
X0134985Y0101915D01*
X0134985Y0024750D01*
X0004867Y0024750D01*
D11*
X0109635Y0093300D02*
X0113571Y0099205D01*
X0116080Y0099205D02*
X0116080Y0098221D01*
X0118048Y0096253D01*
X0118048Y0093300D01*
X0118048Y0096253D02*
X0120017Y0098221D01*
X0120017Y0099205D01*
X0122526Y0099205D02*
X0122526Y0093300D01*
X0126462Y0093300D02*
X0126462Y0099205D01*
X0128971Y0097237D02*
X0130939Y0099205D01*
X0130939Y0093300D01*
X0128971Y0093300D02*
X0132908Y0093300D01*
X0126462Y0096253D02*
X0122526Y0096253D01*
X0113571Y0093300D02*
X0109635Y0099205D01*
D12*
X0040378Y0044750D03*
X0029355Y0044750D03*
D13*
X0014367Y0064750D03*
D14*
X0015367Y0074750D03*
X0014367Y0084750D03*
X0015367Y0094750D03*
D15*
X0101993Y0041443D03*
X0101993Y0034750D03*
X0101993Y0028057D03*
X0117741Y0028057D03*
X0117741Y0034750D03*
X0117741Y0041443D03*
D16*
X0070465Y0029750D03*
X0059268Y0029750D03*
X0040465Y0064750D03*
X0029268Y0064750D03*
D17*
X0089867Y0050348D03*
X0099867Y0054152D03*
X0099867Y0065348D03*
X0089867Y0039152D03*
D18*
X0076382Y0043332D03*
X0073823Y0043332D03*
X0071264Y0043332D03*
X0068705Y0043332D03*
X0066146Y0043332D03*
X0063587Y0043332D03*
X0061028Y0043332D03*
X0058469Y0043332D03*
X0055910Y0043332D03*
X0053351Y0043332D03*
X0053351Y0066167D03*
X0055910Y0066167D03*
X0058469Y0066167D03*
X0061028Y0066167D03*
X0063587Y0066167D03*
X0066146Y0066167D03*
X0068705Y0066167D03*
X0071264Y0066167D03*
X0073823Y0066167D03*
X0076382Y0066167D03*
D19*
X0071264Y0066167D02*
X0071264Y0084750D01*
X0099867Y0064750D01*
X0099867Y0065348D01*
X0099867Y0054152D02*
X0101993Y0054152D01*
X0101993Y0041443D01*
X0101993Y0034750D02*
X0101993Y0034152D01*
X0089867Y0039152D01*
X0089867Y0050348D02*
X0076382Y0040348D01*
X0076382Y0043332D01*
X0061028Y0043332D02*
X0061028Y0029750D01*
X0059268Y0029750D01*
X0070465Y0029750D02*
X0101993Y0029750D01*
X0101993Y0028057D01*
X0117741Y0028057D02*
X0117741Y0034750D01*
X0117741Y0039750D01*
X0114867Y0039750D01*
X0117741Y0039750D02*
X0119867Y0039750D01*
X0119867Y0041443D01*
X0117741Y0041443D01*
X0118617Y0041443D01*
X0118617Y0059750D01*
X0053351Y0059750D01*
X0053351Y0066167D01*
X0061028Y0066167D02*
X0061028Y0069750D01*
X0054867Y0079750D01*
X0044867Y0054750D01*
X0034867Y0054750D01*
X0034867Y0074750D01*
X0015367Y0074750D01*
X0014367Y0064750D02*
X0029268Y0064750D01*
X0029355Y0064750D01*
X0029355Y0044750D01*
X0029867Y0044750D01*
X0038351Y0029750D01*
X0053351Y0043332D01*
X0040378Y0044750D02*
X0053351Y0059750D01*
X0063587Y0066167D02*
X0063587Y0084750D01*
X0039867Y0084750D01*
X0039867Y0064750D01*
X0040465Y0064750D01*
X0029867Y0064750D02*
X0029355Y0064750D01*
X0039867Y0084750D02*
X0014367Y0084750D01*
X0015367Y0094750D02*
X0078617Y0094750D01*
X0118617Y0059750D01*
M02*
